<?xml version="1.0" encoding="UTF-8"?><svg id="Capa_4" xmlns="http://www.w3.org/2000/svg" viewBox="0 0 150 150"><g id="Capa_2"><g id="Capa_3"><g><path d="M37.14,104.05c.89,3.63,1.8,7.39,.91,11.03-.82,3.33-2.75,6.43-2.71,9.95,.02,1.61,.5,3.2,1.4,4.53s2.05,2.34,3.36,3.17c2.83,1.8,6.23,2.54,9.54,2.71,7.42,.38,14.65-2.33,20.92-6.1,3.13-1.88,6.09-4.04,9-6.26,2.79-2.12,5.59-4.24,8.18-6.6,2.49-2.27,4.81-4.82,6.49-7.77,.94-1.64,1.61-3.41,2.32-5.16,.64-1.58,1.42-3.18,2.35-4.68,1.84-2.95,4.09-5.63,5.9-8.6,1.93-3.17,3.16-6.66,3.53-10.36,.18-1.85,.12-3.71-.15-5.55-.21-1.48-.74-2.91-1.7-4.08s-2.59-1.85-4.12-1.39c-1.74,.52-2.86,2.16-3.71,3.65-1.88,3.29-2.55,7.03-2.18,10.78,.2,2.03,.6,4.03,.96,6.03s.73,3.95,1.09,5.93c.72,3.93,1.45,7.85,2.17,11.78,.66,3.57,1.29,7.05,.94,10.73-.05,.49-.08,.71-.16,1.2-.08,.45-.18,.9-.3,1.35-.11,.41-.23,.81-.38,1.21-.07,.19-.14,.38-.22,.57,.09-.22-.04,.08-.05,.11-.04,.09-.08,.18-.13,.27-.32,.67-.69,1.31-1.11,1.92-.1,.14-.19,.28-.29,.41,0-.01-.19,.25-.1,.13s-.11,.14-.1,.13c-.23,.29-.48,.57-.74,.84-.51,.55-1.07,1.06-1.66,1.53-.05,.04-.11,.09-.16,.13,.18-.14-.09,.07-.1,.08-.14,.1-.28,.2-.42,.3-.31,.22-.63,.42-.96,.61s-.66,.38-1,.55c-.15,.08-.31,.15-.47,.23-.06,.03-.13,.06-.19,.09-.03,.02-.41,.18-.21,.1-.68,.28-1.37,.52-2.07,.7-.35,.09-.71,.18-1.07,.25-.19,.04-.38,.07-.57,.1-.07,.01-.14,.02-.21,.03,.24-.04-.1,.01-.12,.01-.73,.09-1.47,.12-2.2,.1-.58-.01-1.13,.52-1.11,1.11s.49,1.09,1.11,1.11c6.05,.15,12.19-3.14,15.2-8.43,3.7-6.5,1.65-14.38,.38-21.26-.72-3.88-1.43-7.76-2.15-11.64-.35-1.92-.73-3.84-1.05-5.76s-.54-3.69-.44-5.59c.05-.9,.13-1.5,.34-2.4,.19-.84,.45-1.66,.77-2.45,.15-.37-.08,.17,.08-.19,.03-.08,.07-.15,.1-.22,.09-.19,.17-.37,.27-.56,.2-.4,.42-.8,.66-1.19,.46-.75,.73-1.19,1.35-1.74,0,0,.28-.22,.11-.1,.06-.04,.12-.08,.18-.12,.09-.06,.18-.11,.28-.16,.27-.16-.1,.03,.08-.04,.08-.03,.17-.06,.26-.08,0,0,.33-.06,.17-.04-.16,.02,.14,0,.13,0,.09,0,.18,0,.26,0,.27,0-.21-.07,.04,0,.07,.02,.14,.03,.2,.05s.13,.04,.2,.07c-.24-.09-.06-.02,0,.01,.13,.08,.27,.16,.39,.25-.03-.02-.17-.15-.02-.01,.07,.07,.15,.14,.22,.21,.05,.05,.1,.11,.15,.16,0,0,.19,.22,.08,.1s.08,.11,.08,.11c.05,.08,.1,.15,.15,.23,.08,.13,.16,.27,.23,.4,.03,.06,.06,.11,.09,.17,.01,.03,.15,.33,.1,.21-.06-.15,.05,.14,.05,.13,.03,.09,.07,.18,.1,.27,.05,.15,.1,.3,.14,.45,.09,.35,.16,.7,.21,1.05,0,0,.03,.21,.01,.08,.02,.12,.03,.25,.05,.37,.02,.21,.04,.42,.06,.62,.04,.46,.06,.92,.07,1.38,.02,.88-.02,1.76-.1,2.63-.08,.77-.21,1.58-.4,2.43s-.44,1.71-.74,2.54c-1.1,3.1-3.13,5.95-5.1,8.68-.99,1.38-1.99,2.75-2.89,4.2-.97,1.56-1.76,3.2-2.45,4.9s-1.27,3.25-2.16,4.83c-.8,1.42-1.69,2.66-2.68,3.82-2.14,2.52-4.66,4.69-7.23,6.74s-5.38,4.2-8.23,6.22c-5.85,4.14-12.1,7.6-19.25,8.69-.39,.06-.63,.09-1.08,.14s-.92,.09-1.38,.11c-.88,.05-1.76,.06-2.64,.02-1.69-.07-3.17-.27-4.83-.73-.34-.09-.67-.2-1-.31-.17-.06-.33-.12-.5-.18-.1-.04-.2-.08-.29-.12-.32-.13,.19,.09-.12-.05-.67-.3-1.32-.63-1.93-1.02-.14-.09-.29-.19-.43-.28-.08-.06-.17-.12-.25-.18,.01,0-.25-.19-.13-.1s-.14-.11-.13-.1c-.06-.05-.13-.11-.19-.16-.14-.12-.28-.24-.41-.37-.25-.24-.49-.49-.71-.75-.05-.06-.1-.13-.15-.19,.13,.17,0,0-.03-.05-.11-.16-.22-.32-.32-.48-.18-.29-.33-.59-.47-.89,.02,.04,.08,.2,0,0-.03-.09-.07-.18-.1-.27-.06-.17-.11-.34-.15-.51-.19-.75-.23-1.37-.16-2.25,0-.08,.01-.15,.02-.23,0,0,.05-.37,.02-.16,.03-.19,.06-.38,.1-.57,.08-.42,.19-.83,.31-1.24,.23-.8,.52-1.59,.81-2.38,.59-1.58,1.22-3.17,1.52-4.83,.36-1.97,.3-3.94,.03-5.92-.25-1.84-.68-3.64-1.12-5.44-.14-.56-.8-.95-1.36-.77s-.92,.76-.77,1.36h0Z"/><path d="M36.91,105.74c.52,2.32,2.05,4.25,3.96,5.61,2.11,1.49,4.7,2.14,7.26,2.18,2.77,.05,5.55-.57,8.17-1.43,2.43-.8,4.78-1.85,6.99-3.13,2.48-1.44,4.79-3.18,6.87-5.15,.32-.31,.4-.81,.23-1.21-.18-.42-.56-.65-1.01-.68-.16,0-.32-.02-.48-.04-.07,0-.27-.04,0,0-.09-.01-.17-.03-.26-.04-.32-.05-.63-.13-.94-.21-.28-.08-.56-.17-.83-.27-.08-.03-.16-.06-.24-.1,.23,.09,.04,.02-.02,0-.17-.08-.34-.16-.51-.25-.26-.13-.51-.28-.76-.44-.12-.08-.24-.16-.36-.24-.07-.05-.14-.1-.21-.15-.03-.02-.26-.2-.06-.04-.5-.4-.97-.84-1.4-1.32-.1-.11-.19-.22-.28-.33-.03-.03-.21-.27-.04-.05-.04-.05-.07-.09-.1-.14-.2-.27-.38-.55-.55-.84-.16-.26-.3-.53-.43-.81-.03-.05-.2-.47-.1-.21-.06-.16-.13-.32-.18-.49-.1-.29-.19-.58-.26-.88-.04-.16-.07-.31-.1-.47-.01-.06-.02-.12-.03-.17,0-.06-.02-.12-.03-.17,.02,.13,.02,.12,0-.03-.07-.84-.07-1.67-.02-2.51,.1-1.66,.36-3.33,.24-5-.1-1.4-.42-2.82-1.12-4.05-.65-1.14-1.77-2.33-3.12-2.55-.77-.13-1.63-.03-2.2,.56-.74,.76-.55,1.78-.1,2.64,.4,.76,.8,1.52,1.22,2.27s.9,1.39,1.59,1.87c.58,.42,1.36,.62,2.07,.53,.98-.12,1.76-.66,2.12-1.6,.27-.69,.27-1.52,.29-2.26s0-1.46-.08-2.18c-.16-1.53-.52-3.01-1.23-4.38-1.37-2.64-3.99-4.23-6.81-4.89-1.38-.32-2.81-.47-4.23-.5s-2.86,.09-3.95,1.02c-.61,.52-.98,1.36-.96,2.16,.03,.89,.44,1.65,.99,2.33,.49,.61,1.13,1.1,1.78,1.53,.7,.47,1.46,.89,2.27,1.1,1.51,.39,3.05-.07,4.11-1.21,.91-.99,1.46-2.27,1.78-3.56,.35-1.44,.52-2.93,.66-4.4s.23-2.99,.35-4.48c.05-.71,.12-1.41,.19-2.12,.02-.18,.04-.37,.06-.55,.01-.08,.02-.17,.03-.25,.04-.33-.03,.23,.01-.1,.05-.36,.11-.72,.17-1.08,.24-1.38,.6-2.75,1.13-4.05-.09,.23,.03-.07,.04-.09,.03-.06,.05-.12,.08-.18,.08-.16,.15-.32,.23-.48,.17-.34,.36-.67,.56-.99,.34-.55,.73-1.08,1.11-1.6,.17-.23-.14,.18,.03-.05,.05-.07,.1-.13,.16-.2,.08-.11,.17-.21,.26-.31,.18-.22,.37-.43,.57-.64,.36-.38,.74-.74,1.15-1.07,.03-.03,.08-.05,.11-.08-.17,.2-.09,.07,0,.01,.09-.07,.18-.13,.27-.19,.2-.14,.4-.26,.61-.38s.42-.23,.63-.33c.09-.04,.42-.15,.09-.05,.12-.04,.24-.1,.37-.14,.46-.17,.93-.3,1.4-.41,.25-.05,.5-.1,.75-.14,.12-.02,.25-.04,.37-.06,.27-.04-.26,.03,.01,0,.08,0,.16-.02,.23-.03,1.1-.13,2.23-.22,3.34-.18,.44,.01,.87,.05,1.3,.1,.11,.01,.22,.03,.34,.04,.08,.01,.29,.07-.02,0,.04,.01,.1,.01,.14,.02,.29,.04,.59,.09,.88,.14,2.27,.38,4.53,.91,6.71,1.63,.47,.16,.94,.33,1.4,.51,.27,.11-.2-.09,.07,.03,.09,.04,.17,.08,.26,.12,.17,.08,.33,.16,.5,.25,.11,.06,.22,.13,.32,.2,.07,.04,.13,.09,.19,.13-.21-.15,.03,.03,.06,.05,.11,.09,.21,.19,.31,.3,.05,.05,.09,.1,.14,.16,.19,.21-.07-.12,.05,.06,.07,.11,.14,.21,.21,.33,.03,.05,.19,.28,.17,.33l-.05-.13s.04,.09,.05,.14c.02,.06,.04,.11,.06,.17,.04,.13,.08,.27,.1,.4,.01,.06,.02,.11,.03,.17,.05,.24-.02-.27,0-.03,0,.11,.02,.21,.02,.32s0,.2,0,.31c0,.06,0,.12-.01,.18-.01,.19-.07,.04,.01-.07-.08,.11-.08,.39-.12,.52-.01,.04-.03,.07-.04,.11-.06,.18,.13-.28,0-.03-.07,.15-.15,.3-.23,.44-.07,.12-.14,.23-.22,.35-.05,.07-.09,.13-.14,.2,.02-.03,.15-.18,.02-.03-.2,.22-.4,.44-.62,.64-.06,.05-.12,.11-.18,.16-.04,.03-.26,.2-.03,.03-.11,.08-.22,.16-.33,.24-.25,.17-.52,.32-.79,.46-.12,.06-.25,.13-.38,.19-.07,.03-.45,.19-.2,.09-.32,.13-.65,.25-.98,.36-.59,.19-1.18,.34-1.78,.47-1.38,.3-2.79,.49-4.19,.68-.21,.03,.26-.03-.08,.01-.11,.01-.22,.03-.32,.04-.18,.02-.36,.04-.54,.07-.4,.05-.79,.09-1.19,.13-.79,.07-1.58,.13-2.37,.15-.75,.02-1.5,.02-2.24-.02-.39-.02-.77-.05-1.16-.09-.07,0-.14-.02-.21-.02-.02,0-.37-.05-.12-.01-.21-.03-.42-.06-.62-.1-.72-.13-1.44-.29-2.13-.52-.33-.11-.66-.22-.99-.35-.01,0-.33-.14-.13-.05-.06-.03-.13-.06-.19-.09-.19-.09-.38-.18-.57-.28-.7-.36-1.71,.07-1.66,.95,.1,1.75,1.26,3.16,2.83,3.87,.83,.37,1.68,.59,2.59,.66,.96,.08,1.93-.09,2.86-.31,1.01-.23,2.01-.56,3.01-.81,.23-.06,.47-.11,.7-.16,.13-.03,.25-.05,.38-.07,.06-.01,.44-.07,.25-.04,.5-.06,1.01-.08,1.51-.06,2.06,.08,4.22,.48,6.03-.79,.26-.18,.51-.38,.76-.58,.11-.09,.21-.18,.32-.26,.04-.03,.08-.07,.12-.1-.15,.11,.04-.03,.07-.05,.23-.16,.47-.28,.71-.42,.11-.06-.01,0-.03,.01,.06-.03,.13-.05,.19-.07,.13-.05,.26-.09,.39-.12s.26-.07,.4-.09c.07-.01,.13-.02,.2-.04,.1-.02,.12-.02,.01,0,.27-.04,.55-.05,.83-.07,.55-.02,1.11,0,1.66,.01,.45,.01,.98-.35,1.07-.81,.1-.53,.2-1.06,.3-1.59,.11-.57-.16-1.22-.77-1.36-.54-.12-1.25,.16-1.36,.77-.1,.53-.2,1.06-.3,1.59l1.07-.81c-1.95-.06-4.01-.01-5.63,1.21-.23,.17-.45,.35-.67,.53-.09,.08-.19,.15-.28,.23s0,0,.02-.01c-.06,.04-.11,.08-.17,.12-.19,.13-.39,.23-.58,.34-.1,.06,0,0,.03,0-.05,.02-.1,.04-.14,.05-.13,.05-.26,.08-.39,.12-.1,.02-.2,.05-.3,.06-.03,0-.24,.04-.1,.02,.13-.02-.04,0-.06,0-.24,.02-.48,.03-.72,.03-.46,0-.92-.03-1.38-.06-.97-.07-1.93-.14-2.9,0-1.06,.14-2.08,.4-3.1,.7-.47,.13-.93,.27-1.4,.38-.23,.06-.47,.11-.7,.16-.13,.03-.25,.05-.38,.07-.05,0-.11,.02-.16,.03-.02,0-.23,.03-.13,.02,.11-.01-.07,0-.07,0-.06,0-.13,.01-.19,.02-.08,0-.16,.01-.24,.01-.19,0-.37,0-.56,0-.09,0-.19-.01-.28-.02-.03,0-.09,0-.12-.01,0,0,.22,.04,.09,.01-.19-.04-.37-.06-.56-.11-.2-.05-.39-.1-.58-.17-.09-.03-.17-.07-.26-.1-.14-.05,.18,.09,.04,.02-.05-.03-.1-.04-.14-.07-.18-.09-.35-.18-.51-.29-.08-.05-.15-.1-.22-.15-.13-.08,.15,.14,.04,.03-.04-.03-.08-.06-.11-.1-.14-.12-.26-.26-.39-.4-.04-.04-.05-.11,0,0,.06,.14-.02-.03-.04-.07-.05-.07-.09-.14-.13-.22-.02-.03-.03-.06-.05-.1-.09-.15,.02,.06,.02,.07-.03,0-.09-.24-.1-.28-.03-.1-.05-.19-.07-.29-.02-.08,.02-.1,0,0,.01,.08,.01,.1,0,.03,0-.04,0-.08,0-.12l-1.66,.95c2.81,1.42,5.94,1.89,9.06,1.84,1.51-.03,3.03-.17,4.53-.36s2.95-.39,4.41-.66c2.42-.45,5.03-1.22,6.78-3.06,.8-.84,1.44-1.88,1.59-3.04s-.06-2.29-.62-3.29c-1.11-1.96-3.37-2.71-5.39-3.34-2.15-.67-4.36-1.18-6.59-1.52-.96-.15-1.94-.29-2.91-.31-1.12-.02-2.26,.07-3.37,.2-2.05,.25-4.07,.79-5.75,2.05-.88,.66-1.66,1.42-2.36,2.27-.86,1.04-1.67,2.16-2.29,3.36-1.35,2.63-1.85,5.54-2.14,8.45-.14,1.42-.23,2.84-.33,4.27-.05,.71-.11,1.42-.18,2.13-.03,.34-.07,.67-.11,1.01-.01,.1-.03,.2-.04,.3,0-.04,.03-.21,0,0-.03,.2-.06,.4-.09,.6-.1,.64-.22,1.29-.39,1.92-.08,.28-.17,.55-.27,.82-.02,.04-.13,.31-.02,.05-.02,.05-.05,.1-.07,.16-.07,.15-.15,.31-.23,.46-.07,.12-.14,.24-.21,.36-.05,.07-.29,.39-.11,.18-.15,.18-.39,.53-.61,.62,.23-.09,.05-.04-.03,.01-.04,.03-.09,.06-.13,.08-.07,.04-.14,.07-.2,.11-.19,.1,.04-.01,.05-.02-.07,.08-.31,.1-.41,.12-.06,.02-.26,.07,.01,0-.1,.02-.21,.02-.32,.02s-.21,0-.31-.02c.2,.02,.03,0-.01,0-.19-.05-.37-.09-.55-.15-.04-.02-.26-.1-.08-.03-.08-.03-.16-.07-.24-.11-.19-.1-.38-.2-.57-.31-.3-.18-.59-.37-.88-.58-.04-.03-.21-.17-.05-.04-.08-.06-.16-.13-.23-.2-.14-.12-.28-.25-.41-.39-.06-.06-.12-.12-.17-.19,0,0-.19-.25-.1-.12s-.09-.14-.08-.13c-.05-.08-.09-.17-.14-.25-.02-.04-.09-.2,0,.01-.03-.08-.06-.17-.09-.26-.02-.06-.03-.12-.04-.17,.06,.28,.02-.07,.02-.15,0,.05-.06,.22,0,.03,.02-.05,.13-.31,0-.08,.02-.05,.05-.09,.07-.14l.04-.07c.07-.1,.06-.08-.04,.04,0-.01,.11-.11,.1-.11l.05-.05c.09-.08,.08-.07-.05,.03,.02-.06,.35-.23,.4-.23-.01,0-.25,.09-.04,.02,.08-.03,.15-.05,.23-.08,.13-.04,.27-.07,.4-.1,.05-.01,.11-.02,.17-.03,.28-.05-.25,.02,.04,0,.17-.01,.33-.03,.5-.03,.64-.02,1.28,0,1.92,.05,.32,.02,.63,.05,.94,.09,0,0,.31,.04,.14,.02s.13,.02,.13,.02c.19,.03,.37,.06,.56,.09,.64,.12,1.28,.28,1.9,.48,.15,.05,.29,.1,.44,.16,.09,.03,.17,.07,.26,.1-.04-.02-.2-.09-.01,0,.31,.14,.61,.28,.9,.45,.26,.15,.52,.31,.76,.49,.03,.02,.27,.21,.07,.05,.05,.04,.09,.08,.14,.11,.14,.12,.28,.24,.41,.36,.23,.22,.43,.45,.64,.68s-.12-.17,.07,.08c.04,.05,.08,.1,.11,.16,.11,.16,.22,.32,.31,.49,.17,.28,.31,.56,.44,.85s-.07-.21,.04,.09c.03,.08,.06,.15,.09,.23,.06,.17,.12,.33,.17,.5,.1,.33,.19,.66,.26,.99,.03,.16,.06,.32,.09,.48,.01,.08,.03,.16,.04,.24,.02,.13,.02,.13,0,0,0,.05,.01,.1,.02,.15,.08,.69,.11,1.39,.1,2.08,0,.35-.02,.69-.05,1.04,0,.07,0,.13-.01,.2,0,.03-.04,.36,0,.11,0,.07-.02,.13-.04,.2s-.16,.4-.05,.2c-.02,.04-.07,.14-.1,.17l.07-.1s-.07,.07-.11,.11c.12-.03,.06-.16,.03-.04l-.07,.04c.15-.06,.16-.07,.05-.03-.02,0-.14,.05-.15,.04l.14-.02c-.05,0-.11,0-.16,.01-.05,0-.11,0-.16,0-.13-.01-.11,0,.05,.01-.05,0-.11-.02-.16-.03-.05-.01-.1-.03-.16-.05-.25-.07,.18,.12-.03-.02-.04-.03-.09-.06-.14-.08-.26-.14,.13,.13-.09-.06-.12-.11-.23-.22-.34-.35-.14-.15-.04-.04,0,0-.08-.1-.15-.21-.22-.32-.42-.65-.76-1.36-1.13-2.04-.1-.18-.19-.36-.29-.54-.04-.08-.09-.17-.13-.25-.09-.17,.06,.23-.03-.09-.07-.23-.03-.01-.02,.04v.06c.03-.11,.01-.08-.05,.09,.09-.19-.14,.16-.05,.06,.06-.06,.03-.03-.11,.08,.03-.02,.07-.04,.11-.06-.27,.13-.13,.07-.05,.04,.19-.07,.02,.07-.06,0,0,0,.36,0,.36,0-.02,.04-.26-.05,0,.01,.05,.01,.09,.03,.14,.04,.24,.05-.2-.12,0,0,.07,.04,.13,.07,.2,.11s.12,.08,.18,.12c.05,.04,.2,.16,.02,0,.11,.09,.22,.18,.32,.28s.2,.2,.29,.31c.03,.04,.2,.26,.04,.04,.05,.07,.1,.14,.15,.21,.16,.24,.3,.49,.43,.75,.04,.08,.07,.16,.11,.24-.09-.21-.03-.07-.01-.02,.06,.17,.12,.33,.17,.5,.09,.29,.16,.58,.22,.87,.03,.15,.05,.3,.08,.44,.05,.3-.02-.24,0,.06,0,.09,.02,.18,.03,.27,.06,.73,.05,1.45,0,2.18-.1,1.7-.36,3.39-.24,5.09,.1,1.45,.46,2.82,1.11,4.12,1.13,2.29,3.14,4.22,5.48,5.26,1.23,.55,2.5,.88,3.85,.96l-.78-1.89c-.44,.42-.89,.83-1.35,1.22-.21,.18-.42,.36-.64,.53-.12,.1-.24,.2-.36,.29-.05,.04-.11,.09-.16,.13-.02,.01-.23,.18-.13,.11,.12-.09-.15,.12-.14,.1-.06,.04-.11,.08-.17,.13-.11,.08-.22,.17-.33,.25-.25,.18-.51,.36-.76,.54-.49,.34-.98,.66-1.48,.97-1.02,.63-2.07,1.21-3.14,1.73-1.17,.57-1.93,.89-3.13,1.33-1.13,.41-2.27,.77-3.44,1.06-.66,.16-1.32,.31-1.99,.42-.15,.03-.31,.05-.46,.07-.02,0-.26,.04-.14,.02,.15-.02-.23,.03-.2,.02-.33,.04-.65,.07-.98,.09-.67,.05-1.35,.05-2.02,.02-.73-.04-1.08-.08-1.76-.22-.57-.12-1.13-.27-1.67-.48-.06-.02-.11-.04-.17-.06,0,0-.28-.11-.12-.05,.13,.06-.05-.02-.08-.03-.06-.02-.11-.05-.17-.08-.25-.12-.49-.24-.73-.38-.25-.14-.5-.29-.73-.46-.12-.09-.25-.17-.37-.26-.04-.03-.16-.13,0,0-.07-.06-.14-.11-.21-.17-.44-.37-.84-.77-1.2-1.21-.04-.05-.07-.09-.11-.14,.16,.2-.02-.03-.04-.06-.08-.11-.15-.22-.23-.33-.15-.24-.3-.48-.42-.73-.07-.13-.13-.27-.19-.4,.1,.21,.03,.07,0,.02-.03-.08-.06-.17-.09-.25-.1-.28-.18-.57-.24-.86-.13-.56-.81-.95-1.36-.77-.59,.19-.91,.75-.77,1.36h0Z"/><path d="M83.83,52.08c.08,.09,.03,.08,.05,0-.04,.2,0-.13,0-.2,.02-.27,.11-.64,.23-.99,.26-.78,.64-1.52,1.08-2.22,.18-.29,.37-.59,.59-.86,.11-.14,.23-.27,.35-.4,.04-.04,.34-.31,.19-.2,.92-.68,2.25-.61,3.33-.49,1.22,.14,2.53,.52,3.52-.47,.84-.84,.91-2.22,.99-3.33,.18-2.59-.32-5.22-1.22-7.65-1.8-4.86-5.04-9.14-8.7-12.77s-7.74-6.43-12.22-8.76c-3.83-1.98-8.25-3.89-10.83-7.52-.31-.43-.64-.9-.85-1.39s-.07-.68,.4-.9c1.15-.55,2.64-.65,3.89-.71,2.85-.14,5.66,.36,8.41,1.06,2.59,.66,5.15,1.45,7.68,2.29,2.25,.75,4.47,1.59,6.56,2.71s3.88,2.39,5.42,4.08,2.72,3.89,3.45,6.14c1.54,4.7,1.7,9.7,2.49,14.54,.44,2.72,1.11,5.39,2.04,7.98s2.26,5.23,3.4,7.85c1.95,4.49,3.57,9.15,5.03,13.82s.95,9.32,.02,13.87c-1,4.86-2.52,9.6-3.41,14.49-.43,2.37-.73,4.78-.71,7.19s.23,4.94,1.22,7.13c2.21,4.86,8.99,4.05,12.66,1.47,4.01-2.83,5.98-8.38,4.15-13.05-.81-2.06-2.64-4.13-5.07-3.85s-4.1,2.85-5.09,4.87c-2.22,4.53-2.2,9.72-1.43,14.6,.87,5.58,2.65,11.02,2.63,16.72-.01,4.98-1.17,9.97-3.36,14.44-1.07,2.19-2.36,4.27-3.89,6.16-.38,.47-.45,1.1,0,1.56,.38,.39,1.19,.46,1.56,0,3.15-3.91,5.45-8.44,6.73-13.3s1.43-10.2,.59-15.33c-.89-5.4-2.63-10.71-2.53-16.24,.04-2.35,.41-4.74,1.33-6.91,.45-1.05,1.04-2.08,1.76-2.97,.61-.75,1.44-1.63,2.5-1.39,.97,.22,1.68,1.23,2.07,2.08,.47,1.02,.64,2.19,.64,3.3,0,2.32-.86,4.64-2.48,6.31-1.57,1.62-3.77,2.67-6.03,2.8-1.12,.07-2.36,0-3.35-.58s-1.46-1.58-1.76-2.6c-1.34-4.49-.56-9.55,.41-14.03,1.04-4.8,2.54-9.5,3.35-14.35,.73-4.39,.92-8.99-.49-13.27-1.62-4.92-3.29-9.82-5.38-14.57-1.12-2.56-2.37-5.04-3.26-7.7-.85-2.54-1.44-5.15-1.84-7.8-.72-4.8-.92-9.77-2.56-14.39s-4.72-8.14-8.92-10.56c-4.21-2.43-9.02-3.83-13.67-5.15-2.75-.78-5.57-1.43-8.43-1.62-1.46-.1-2.91-.04-4.36,.16-1.15,.16-2.45,.36-3.43,1.02-2.51,1.68-.61,4.46,.82,6.17s3.24,3.04,5.12,4.19c4.02,2.46,8.38,4.24,12.22,7.01,4.05,2.92,7.7,6.59,10.48,10.75,1.43,2.14,2.64,4.45,3.37,6.93,.35,1.2,.6,2.43,.67,3.69,.04,.61,.04,1.23,0,1.84-.03,.51-.02,1.21-.24,1.68-.2,.42-.63,.24-1.05,.17-.66-.1-1.32-.19-1.99-.2-1.17-.02-2.44,.18-3.43,.83-1.33,.88-2.25,2.58-2.87,4.01-.58,1.33-1.2,3.12-.11,4.36,.94,1.07,2.5-.5,1.56-1.56h0Z"/><path d="M76.2,41.93s.27,.11,.1,.04,.09,.04,.1,.04c.1,.04,.21,.09,.31,.13,.26,.11,.51,.23,.77,.34,.49,.22,.97,.45,1.44,.69,.95,.48,1.89,.99,2.81,1.53,.46,.27,.91,.55,1.36,.84,.21,.14,.42,.28,.64,.42,.1,.07,.2,.13,.29,.2,.13,.09,.02,.09-.03-.03,.02,.04,.12,.1,.15,.13,.03,.03,.06,.07,.09,.1-.14-.1-.12-.17-.06-.07,.11,.19-.07-.25-.02-.03,0,0-.03-.29-.02-.12s.02-.13,.02-.14c-.03,.19,.11-.21,.05-.1-.07,.12-.08,.03,.07-.07-.03,.02-.1,.08-.12,.11,.01-.02,.23-.15,.09-.07-.03,.02-.07,.04-.1,.06-.03,.02-.21,.1-.03,.02s0,0-.04,0c-.08,.02-.16,.04-.24,.06-.22,.06,.28-.01,.06,0-.06,0-.13,0-.19,0-.2,0-.51,.03-.7-.04,.02,0,.27,.04,.06,0-.05,0-.1-.02-.15-.03-.14-.03-.28-.06-.42-.09-.48-.12-.95-.28-1.42-.46-.94-.35-1.87-.74-2.86-.95-2.13-.44-4.31-.15-6.38,.45s-3.95,1.43-5.94,2.11c-.5,.17-1,.33-1.51,.46-.25,.06-.5,.12-.75,.17-.06,.01-.11,.02-.17,.03-.21,.04,0,0,.04,0-.17,.03-.34,.04-.51,.05-.25,.01-.5,.01-.75,0-.03,0-.15-.03-.17-.02,.06-.04,.2,.04,.05,0s-.3-.06-.45-.1c-.1-.03-.21-.08-.31-.11,.26,.08,.13,.05,.05,.02-.05-.02-.1-.05-.15-.08-.08-.04-.16-.09-.23-.14-.05-.03-.09-.07-.14-.1-.08-.06,.2,.17,.01,0-.08-.07-.15-.14-.22-.21-.03-.03-.06-.07-.09-.1-.02-.02-.15-.2-.04-.04s-.02-.03-.03-.05c-.02-.04-.05-.07-.07-.11-.03-.05-.06-.09-.08-.14-.02-.04-.1-.25-.04-.07s-.04-.12-.05-.17c-.02-.06-.07-.37-.05-.17s0-.12,0-.17c0-.04,0-.09,0-.13,0-.22-.06,.24,0,.03,.03-.11,.06-.21,.09-.32,.06-.18-.02,.07-.03,.08,.02-.01,.06-.12,.08-.15,.05-.09,.11-.16,.16-.25-.12,.21-.11,.13-.05,.07,.05-.05,.09-.1,.14-.15,.03-.03,.24-.19,.25-.23,0,.01-.22,.16-.06,.05,.04-.03,.07-.05,.11-.08,.09-.06,.19-.12,.29-.18,.09-.05,.24-.08,.31-.15-.13,.12-.18,.07-.04,.02,.06-.02,.12-.04,.17-.06,.11-.03,.21-.07,.32-.09,.14-.03,.27-.06,.41-.09,.1-.02,.34,0,.41-.07l-.13,.02s.08-.01,.13-.01c.07,0,.14-.02,.21-.02,.11-.01,.22-.02,.34-.03,.28-.02,.56-.05,.84-.07,1.12-.11,2.18-.38,3.23-.79s2.06-.91,3.06-1.41c.23-.12,.47-.24,.7-.35,.1-.05,.3-.11-.13,.05,.07-.03,.14-.06,.21-.08,.2-.07,.4-.13,.6-.17,.14-.03,.27-.06,.41-.08,.03,0,.06,0,.09-.01,.17-.03-.15,.02-.15,.02,.04-.03,.23-.03,.28-.03,.37-.03,.75-.04,1.13-.01,.1,0,.2,.01,.3,.02,.05,0,.09,.01,.14,.01,.24,.02-.21-.03-.05,0,.23,.04,.47,.08,.7,.13,.52,.12,1.03,.29,1.53,.5,.25,.1,.63,.02,.85-.11s.45-.4,.51-.66c.06-.28,.05-.6-.11-.85s-.38-.39-.66-.51c-1.76-.72-3.74-.98-5.61-.53-.4,.1-.8,.24-1.17,.42-.81,.39-1.6,.81-2.41,1.18-.13,.06-.25,.12-.38,.17-.05,.02-.1,.04-.15,.07-.26,.11,.22-.09-.04,.02s-.52,.2-.78,.3c-.52,.18-1.04,.33-1.58,.43-.13,.02-.28,.03-.4,.07,.24-.08,.1-.01,.01,0-.07,0-.14,.01-.21,.02-.28,.03-.56,.05-.84,.07-.64,.06-1.29,.13-1.91,.29-1.12,.29-2.15,.93-2.79,1.9s-.64,2.29-.12,3.36c.49,1,1.45,1.74,2.49,2.11,1.19,.42,2.53,.3,3.74,.03,2.19-.5,4.26-1.47,6.38-2.2,1.03-.35,2.07-.67,3.14-.87,.13-.02,.26-.05,.39-.07,.05,0,.1-.02,.16-.02,.26-.04-.19,.02-.02,0,.28-.03,.55-.06,.83-.07,.53-.03,1.05-.02,1.58,.04,.02,0,.28,.04,.09,0s.07,.01,.09,.02c.13,.02,.26,.05,.4,.07,.26,.05,.52,.12,.77,.2,.51,.15,1,.34,1.5,.53,1.07,.41,2.12,.77,3.26,.88,1.06,.1,2.44-.18,2.95-1.25,.35-.75,.2-1.54-.35-2.16-.37-.42-.9-.71-1.37-1.02-1.88-1.23-3.86-2.31-5.9-3.24-.57-.26-1.15-.51-1.73-.75-.25-.1-.63-.02-.85,.11-.23,.13-.45,.4-.51,.66-.06,.28-.05,.6,.11,.85s.38,.39,.66,.51Z"/><path d="M37.77,106.41c3.9,.89,7.96,1.14,11.93,.67,1.05-.12,2.09-.28,3.12-.49,.95-.19,1.91-.41,2.83-.73s1.82-.68,2.63-1.17c.71-.43,1.36-.97,1.96-1.54s1.09-1.14,1.59-1.74c.2-.24,.39-.47,.59-.71,.08-.09,.16-.19,.25-.28,.04-.04,.08-.08,.12-.12,.19-.19,.1,.05-.33,.16l-.85-.11h.01c-.17-.22-.34-.44-.51-.66-.19-.5,.2-1.09,.69-1.22h.57c.16,.09,.33,.18,.49,.28l.12,.2c.1,.22,.14,.28,.12,.17,0-.05-.07-.19-.08-.21-.06-.14-.1-.21-.2-.34-.15-.2-.34-.37-.57-.49-.37-.19-.73-.25-1.14-.29-.37-.04-.75-.04-1.12-.03-1.07,.04-2.13,.19-3.18,.35s-2.1,.34-3.15,.53c-.47,.08-.94,.17-1.41,.24-.21,.04-.42,.07-.63,.1-.09,.01-.18,.03-.27,.04-.04,0-.08,.01-.12,.02s.33-.04,.11-.01c-.68,.09-1.35,.04-2.03,.04-1.02,0-2.03,.03-3.05,.11-2.19,.19-4.43,.56-6.41,1.56-.92,.46-1.73,1.1-2.35,1.92-.72,.94-1.1,2.24-.57,3.36,.18,.39,.57,.71,.99,.81,.56,.13,1.22-.17,1.36-.77,.13-.56-.17-1.22-.77-1.36h-.04c.13,.03,.25,.1,.35,.2-.13-.12,.15,.26,.07,.09-.07-.14,.06,.14,.05,.14-.01,0-.04-.13-.04-.14-.03-.13,.02-.19,0,.08,0-.03,0-.07,0-.11,0-.05,0-.11,0-.16,0-.04,0-.07,0-.11,.01-.12,0-.07-.02,.14,.05-.14,.09-.29,.13-.43-.12,.38-.04,.1,0,0,.04-.09,.09-.17,.14-.25,.04-.06,.08-.12,.12-.18,.02-.04,.05-.07,.08-.11,.09-.13-.1,.13-.09,.12,.09-.15,.24-.28,.36-.4s.24-.22,.36-.32c.06-.05,.19-.13-.1,.07,.04-.03,.08-.06,.11-.08,.08-.06,.16-.11,.24-.16,.31-.2,.63-.37,.96-.53,.09-.04,.19-.08,.28-.13,0,0-.28,.11-.12,.05,.05-.02,.1-.04,.15-.06,.18-.07,.37-.14,.56-.2,.81-.27,1.64-.46,2.47-.6,.19-.03,.38-.06,.57-.09,.08-.01,.3-.04-.06,0,.06,0,.12-.02,.17-.02,.12-.01,.23-.03,.35-.04,.42-.05,.84-.08,1.27-.11,.8-.05,1.6-.08,2.4-.07,.57,0,1.15,.06,1.72,0,.68-.06,1.36-.18,2.04-.29,1.65-.28,3.3-.59,4.96-.82,.21-.03-.24,.03-.1,.01,.05,0,.09-.01,.14-.02,.1-.01,.2-.03,.3-.04,.21-.02,.41-.05,.62-.07,.36-.04,.72-.06,1.09-.08,.31-.01,.62-.01,.92,0,.07,0,.14,.01,.22,.02,.09,0,.17,.06-.19-.03,.06,.01,.12,.02,.17,.03,.04,0,.13,.06,.17,.05-.02,0-.25-.13-.1-.04,.18,.11-.19-.19-.05-.04-.09-.08-.15-.19-.18-.3,0,.03,.01,.05,.02,.08,.16,.62,.8,1.01,1.42,.83,.5-.14,.91-.66,.88-1.19-.03-.75-.7-1.26-1.43-1.08-.29,.07-.52,.29-.72,.5-.49,.52-.93,1.1-1.41,1.64-.31,.35-.62,.69-.96,1.02-.17,.17-.35,.34-.54,.5-.08,.07-.17,.15-.26,.22-.05,.04-.1,.08-.16,.13-.17,.14,.2-.15-.02,.01-.4,.3-.83,.57-1.28,.78-.13,.06-.26,.12-.39,.18-.08,.03-.16,.07-.23,.1-.05,.02-.19,.09,.03-.01-.31,.14-.63,.25-.95,.36-1.19,.41-2.45,.66-3.69,.88-.31,.05-.63,.1-.94,.15-.07,.01-.14,.02-.21,.03-.18,.03,.28-.03,0,0-.17,.02-.34,.04-.52,.06-.65,.07-1.29,.13-1.94,.17-1.28,.07-2.57,.07-3.86,0-.64-.04-1.27-.09-1.9-.16-.14-.02-.29-.03-.43-.05-.09-.01-.17-.02-.26-.03,.29,.04,0,0-.05,0-.31-.05-.63-.09-.94-.15-.63-.11-1.25-.23-1.87-.38-.56-.13-1.22,.17-1.36,.77-.13,.56,.17,1.22,.77,1.36h0Z"/></g></g></g></svg>
