<?xml version="1.0" encoding="utf-8"?>
<!-- Generator: Adobe Illustrator 25.3.1, SVG Export Plug-In . SVG Version: 6.00 Build 0)  -->
<svg version="1.1" id="Capa_1" xmlns="http://www.w3.org/2000/svg" xmlns:xlink="http://www.w3.org/1999/xlink" x="0px" y="0px"
	 viewBox="0 0 240 57" style="enable-background:new 0 0 240 57;" xml:space="preserve">
<style type="text/css">
	.st0{fill-rule:evenodd;clip-rule:evenodd;fill:#FFFFFF;}
</style>
<path class="st0" d="M165.8,16.7c2.4,0,4.2,0.8,5.5,2.8h0.1v-2.4h4.5v16.1c0,4.8-1.9,9.2-9.1,9.4l-0.4,0c-1.9,0-4-0.3-6.2-1.2
	l0.4-3.9c1.4,0.8,3.8,1.6,5.2,1.6c5.2,0,5.4-3.8,5.4-6.9h-0.1c-0.8,1.5-2.8,2.7-5.2,2.8l-0.3,0c-5.3,0-7.3-4.2-7.3-9
	C158.2,21.7,160.5,16.7,165.8,16.7L165.8,16.7z M64.1,14.2l0.8,10.1c1.4-0.2,3.6,0.2,4.8,2.7c1.2-1.6,5.6-2.7,6.3,3.1l0,0.3V34h-3.1
	v-3.5c0-1.9-2.1-1.9-2.3-0.2l0,0.2v4.4h-2.9l-0.3-5.2c-0.2-1.6-2.7-2.5-2.1-0.3l0.1,1c0.3,3,0.9,11.2-3.3,11.6
	c-4.5-0.2-4.2-11.4-0.1-15.8l0.2-0.2l-0.9-11.5C61.2,14.3,64.1,14.2,64.1,14.2z M87.9,31.3c-2-5.5,0.6-10.1,3.3-9.7
	c4.3,0.7,3.3,6.3,0.7,9.8c0.4,0.7,1.5,1.1,2.7,0.5c-2.8-8.5,9-8.2,6.1-1.2c2.4-0.6,7.1-4.9,10.2-5l0.3,0c5.6-0.1,4.3,9.2-3.3,9.8
	l-0.4,0v-3.1l0.2-0.1c0.7-0.2,2.3-0.8,3.2-1.7c0.6-0.7,0.1-2.6-1.8-1.6l-0.2,0.1l-6.9,4.3c-1.2,0.7-3.3,1.1-4.3,0.3
	c-2.1,1.6-6.8,2.3-8.5,0l-0.1-0.2l-3.1,2.2c0.3,2.2-0.2,5.9-3.9,5.6c-3.9-0.3-4.1-5.6,0.4-7.6l0.3-0.1v-1c-2.5,1.8-6.5,2.1-6.4-2.4
	c0.5-2.9,3.6-5.6,8.4-5.9l0.4,0v3.1c-3.9,0.2-5.9,1.9-5.5,3.4c0.4,0.4,2.3-0.6,3.2-2.6l0.1-0.3h2.9v4l1-0.3
	C87.5,31.5,87.7,31.4,87.9,31.3z M82.8,36.7c-0.3,0-0.6,0.3-0.7,0.7c0,0.4,0.2,0.8,0.6,0.8c0.3,0,0.6-0.3,0.7-0.7
	C83.4,37.1,83.2,36.7,82.8,36.7L82.8,36.7z M62.4,31.1c-0.3,0-0.6,1.4-0.7,3.1l0,0.6c0,1.4,0.2,2.5,0.4,2.6c0.3,0,0.6-1.2,0.6-2.8
	l0-0.3C62.9,32.5,62.7,31.1,62.4,31.1L62.4,31.1z M216.9,17c5.3,0,9.4,3.6,9.4,9.5c0,5-3.3,9-9,9.2l-0.4,0c-5.9,0-9.4-4.1-9.4-9.2
	C207.5,20.6,211.6,17,216.9,17L216.9,17z M182.6,17.3l0,10.1l0,0.4c0.1,2,0.5,4.1,3,4.1c3.3,0,4.1-3.4,4.1-5.7l0-8.9h4.7v17.8H190
	v-2.4h-0.1c-1.4,1.6-3.2,2.7-5.5,2.8l-0.4,0c-4.3,0-6.1-3-6.1-7V17.3L182.6,17.3L182.6,17.3z M1.4,29.1c-4.4-8.4,3-12.5,7.7-10.6
	l0.2,0.1v3.5c-3.7-1.7-6.7,0.9-5.7,4c4.9-3.7,8.3,5.4,1.2,5c0.9,1.5,3.2,1.3,5.2,0C7.7,18,20,18.3,14.1,31.5
	c-0.6,0.7,1.3,0.9,2.4,0.1l0.1-0.1v2.7c-2,1.4-4.2,0.7-5.1-0.2C6.8,37.2,0.3,35.2,1.4,29.1z M30.7,33.4
	c-14.4,9.3-18.4-16.2-2.6-14.5l0.5,0.1v3.1c-11.7-2.8-8.5,15.5,0.3,8.7c-0.7-3.1,3.3-4.2,3.4-2l0,0.3c0,1,0.2,2.5,1.3,2.5
	c1.2,0.1,2-1.4,0.7-1.5c-5.3-1.7,0.5-9.7,3.7-3.2c1.3,0,2.5,0.4,3.3,1.5c0.1-0.5,1.1-1.1,1.9-1l0.2,0v2.8c-0.8,0-1.5,0.4-1.5,1.3
	l0,0.2v2.8h-2.4v-2.7c0-0.8-0.5-1.2-1.6-1.2C37.8,32.6,34.4,35.7,30.7,33.4z M234,16.7c2.2,0,3.6,0.3,5.1,0.7l-0.3,3.5
	c-1.4-0.5-2.5-0.8-4.2-0.8c-1.3,0-2.8,0.5-2.8,2c0,2.8,8.1,1,8.1,7.5c0,4-3.5,5.7-7.2,5.8l-0.3,0c-1.8,0-3.6-0.3-5.3-0.8l0.3-3.8
	c1.5,0.7,3,1.2,4.6,1.2c1.2,0,3.1-0.5,3.1-2.2c0-3.5-8.1-1.1-8.1-7.5C227,18.4,230.4,16.7,234,16.7L234,16.7z M132.4,16.7
	c2.2,0,3.6,0.3,5.1,0.7l-0.3,3.5c-1.4-0.5-2.5-0.8-4.2-0.8c-1.3,0-2.8,0.5-2.8,2c0,2.8,8.1,1,8.1,7.5c0,4-3.5,5.7-7.2,5.8l-0.3,0
	c-1.8,0-3.6-0.3-5.3-0.8l0.3-3.8c1.5,0.7,3,1.2,4.6,1.2c1.2,0,3.1-0.5,3.1-2.2c0-3.5-8.1-1.1-8.1-7.5
	C125.3,18.4,128.7,16.7,132.4,16.7L132.4,16.7z M148.4,16.7c6.4,0,8.4,4.2,8.5,10.1l0,0.7h-12.4c0.2,2.9,2.2,4.5,5.1,4.5
	c2.3,0,4.2-0.8,6-1.8V34c-1.6,0.9-3.4,1.4-5.7,1.4l-0.5,0c-5.9,0-9.4-3.4-9.4-9.2C140.1,21,142.9,16.7,148.4,16.7z M48.2,21.3
	l-0.5,6.4h0.8c4.1-8.5,12.4-0.5,3.5,3.4c1.1,1.5,2.7,1,4,0.1l0.3-0.2v3.1c-1.8,1.8-6.3,1.7-7.7-2.4c-0.4-1.1-1.1-0.9-1.1-0.6l0,3.4
	h-2.7v-4.4l-0.6,0v-2.7h0.9l0.4-6.1C45.5,21.3,48.2,21.3,48.2,21.3z M205.8,16.7c0.5,0,0.9,0,1.4,0.1v4.7c-0.4-0.2-1.1-0.3-1.8-0.4
	l-0.3,0c-3.6,0-3.8,4.3-3.8,6.9V35h-4.7V17.1h4.1v4.1h0.1C201.1,19.5,203,16.7,205.8,16.7L205.8,16.7z M216.9,20.6
	c-3,0-4.5,2.6-4.5,5.3c0,2.9,0.9,6.2,4.5,6.2c3.6,0,4.5-3.2,4.5-6.2C221.4,23.2,220,20.6,216.9,20.6z M167.3,20.3
	c-3.2,0-4.2,2.9-4.2,5.6c0,2.4,1.3,5.4,4,5.4c2.9,0,4.1-2.5,4.1-5.5C171.2,22.8,170,20.3,167.3,20.3z M97.8,28.1
	c-0.4,0-0.7,0.5-0.7,1.1c0,0.6,0.3,1.1,0.7,1.1c0.4,0,0.7-0.5,0.7-1.1C98.6,28.6,98.2,28.1,97.8,28.1z M5.5,27.7
	c-0.4,0-0.7,0.3-0.7,0.7c0,0.4,0.3,0.7,0.7,0.7c0.4,0,0.7-0.3,0.7-0.7C6.2,28,5.9,27.7,5.5,27.7z M12.9,25.4c-0.3,0-0.6,0.7-0.8,1.7
	c-0.1,1,0,1.8,0.3,1.9c0.3,0,0.6-0.7,0.8-1.7C13.3,26.3,13.2,25.5,12.9,25.4L12.9,25.4z M52.8,26.8c-0.2-0.2-0.7,0.1-1,0.6
	c-0.3,0.5-0.4,1-0.2,1.2c0.2,0.2,0.7-0.1,1-0.6C52.9,27.5,53,26.9,52.8,26.8L52.8,26.8z M90.8,25c-0.3,0-0.6,0.7-0.8,1.6
	c-0.1,0.9,0,1.7,0.3,1.8c0.3,0,0.6-0.7,0.8-1.6C91.2,25.8,91.1,25,90.8,25z M35,26.8c-0.3,0-0.5,0.2-0.5,0.5c0,0.3,0.2,0.5,0.5,0.5
	c0.3,0,0.5-0.2,0.5-0.5C35.5,27,35.3,26.8,35,26.8z M107,20l1.5,2.6l-5.9,3.8l-1.9-2.3L107,20L107,20z M148.7,20.1
	c-2.6,0-3.9,1.8-4.1,4.2h8c-0.1-2.2-1.1-4-3.5-4.2L148.7,20.1L148.7,20.1z"/>
</svg>
